<?xml version="1.0" encoding="UTF-8" standalone="no"?>
<!DOCTYPE svg PUBLIC "-//W3C//DTD SVG 1.0//EN" "http://www.w3.org/TR/2001/REC-SVG-20010904/DTD/svg10.dtd">
<!-- Generated by Microsoft Visio 11.0, SVG Export, v1.0 input_delay.svg Page-1 -->
<svg xmlns="http://www.w3.org/2000/svg" xmlns:v="http://schemas.microsoft.com/visio/2003/SVGExtensions/" width="8.26772in"
		height="11.6929in" viewBox="0 0 595.276 841.89" xml:space="preserve" color-interpolation-filters="sRGB" class="st11">
	<v:documentProperties v:langID="2057" v:metric="true" v:viewMarkup="false"/>

	<style type="text/css">
	<![CDATA[
		.st1 {fill:#ffffff;stroke:none;stroke-linecap:round;stroke-linejoin:round;stroke-width:0.72}
		.st2 {fill:#000000;font-family:Arial;font-size:1.00001em}
		.st3 {fill:#ffffff;stroke:#000000;stroke-linecap:round;stroke-linejoin:round;stroke-width:0.72}
		.st4 {fill:#000000;font-family:Arial;font-size:0.833336em}
		.st5 {font-size:1em}
		.st6 {fill:#000000;font-family:Arial;font-size:0.499992em}
		.st7 {stroke:#000000;stroke-linecap:round;stroke-linejoin:round;stroke-width:0.72}
		.st8 {marker-end:url(#mrkr13-108);stroke:#000000;stroke-linecap:round;stroke-linejoin:round;stroke-width:0.72}
		.st9 {fill:#000000;fill-opacity:1;stroke:#000000;stroke-opacity:1;stroke-width:0.22222222222222}
		.st10 {stroke:#000000;stroke-dasharray:5.04,3.6;stroke-linecap:round;stroke-linejoin:round;stroke-width:0.72}
		.st11 {fill:none;fill-rule:evenodd;font-size:12;overflow:visible;stroke-linecap:square;stroke-miterlimit:3}
	]]>
	</style>

	<defs id="Markers">
		<g id="lend13">
			<path d="M 3 1 L -0 0 L 3 -1 L 3 1 " style="stroke:none"/>
		</g>
		<marker id="mrkr13-108" class="st9" v:arrowType="13" v:arrowSize="2" v:setback="13.5" refX="-13.5" orient="auto"
				markerUnits="strokeWidth">
			<use xlink:href="#lend13" transform="scale(-4.5,-4.5) "/>
		</marker>
	</defs>
	<g v:mID="0" v:index="1" v:groupContext="foregroundPage">
		<title>Page-1</title>
		<v:pageProperties v:drawingScale="0.0393701" v:pageScale="0.0393701" v:drawingUnits="24" v:shadowOffsetX="8.50394"
				v:shadowOffsetY="-8.50394"/>
		<v:layer v:name="Connector" v:index="0"/>
		<g id="shape50-1" v:mID="50" v:groupContext="shape" transform="translate(320.315,-524.409)">
			<title>Sheet.50</title>
			<desc>FPGA2</desc>
			<v:textBlock v:margins="rect(4,4,4,4)" v:tabSpace="42.5197" v:verticalAlign="0"/>
			<v:textRect cx="52.4409" cy="768.189" width="104.89" height="147.402"/>
			<rect x="0" y="694.488" width="104.882" height="147.402" class="st1"/>
			<text x="61.54" y="709.29" class="st2" v:langID="2057"><v:paragraph v:horizAlign="2"/><v:tabList/>FPGA2</text>		</g>
		<g id="shape49-4" v:mID="49" v:groupContext="shape" transform="translate(206.929,-524.409)">
			<title>Sheet.49</title>
			<desc>FPGA1</desc>
			<v:textBlock v:margins="rect(4,4,4,4)" v:tabSpace="42.5197" v:verticalAlign="0"/>
			<v:textRect cx="52.4409" cy="768.189" width="104.89" height="147.402"/>
			<rect x="0" y="694.488" width="104.882" height="147.402" class="st1"/>
			<text x="61.54" y="709.29" class="st2" v:langID="2057"><v:paragraph v:horizAlign="2"/><v:tabList/>FPGA1</text>		</g>
		<g id="shape37-7" v:mID="37" v:groupContext="shape" transform="translate(22.6772,-524.409)">
			<title>Sheet.37</title>
			<desc>FPGA0</desc>
			<v:textBlock v:margins="rect(4,4,4,4)" v:tabSpace="42.5197" v:verticalAlign="0"/>
			<v:textRect cx="87.874" cy="768.189" width="175.75" height="147.402"/>
			<rect x="0" y="694.488" width="175.748" height="147.402" class="st1"/>
			<text x="132.4" y="709.29" class="st2" v:langID="2057"><v:paragraph v:horizAlign="2"/><v:tabList/>FPGA0</text>		</g>
		<g id="shape3-10" v:mID="3" v:groupContext="shape" transform="translate(42.5197,-641.26)">
			<title>Sheet.3</title>
			<desc>UART RECEIVER</desc>
			<v:textBlock v:margins="rect(4,4,4,4)" v:tabSpace="42.5197"/>
			<v:textRect cx="39.685" cy="829.764" width="79.38" height="24.252"/>
			<rect x="0" y="817.638" width="79.3701" height="24.252" class="st3"/>
			<text x="26.07" y="826.76" class="st4" v:langID="2057"><v:paragraph v:horizAlign="1"/><v:tabList/>UART<v:lf/><tspan
						x="14.12" dy="1.2em" class="st5">RECEIVER</tspan></text>		</g>
		<g id="group1-14" transform="translate(96.378,-590.551)" v:mID="1" v:groupContext="group">
			<title>Sheet.1</title>
			<g id="shape2-15" v:mID="2" v:groupContext="shape">
				<title>Sheet.2</title>
				<desc>Reg</desc>
				<v:textBlock v:margins="rect(4,4,4,4)" v:tabSpace="42.5197"/>
				<v:textRect cx="9.92126" cy="825.354" width="19.85" height="33.0709"/>
				<rect x="0" y="808.819" width="19.8425" height="33.0709" class="st3"/>
				<text x="4.42" y="827.15" class="st6" v:langID="2057"><v:paragraph v:horizAlign="1"/><v:tabList/>Reg</text>			</g>
			<g id="shape5-18" v:mID="5" v:groupContext="shape" transform="translate(-1.59872E-014,-1.88976)">
				<title>Sheet.5</title>
				<path d="M0 833.39 L4.25 837.64 L0 841.89" class="st7"/>
			</g>
		</g>
		<g id="shape4-21" v:mID="4" v:groupContext="shape" transform="translate(82.2047,-615.118)">
			<title>Sheet.4</title>
			<path d="M0 815.75 L0 841.89 L14.17 841.89" class="st7"/>
		</g>
		<g id="shape6-24" v:mID="6" v:groupContext="shape" transform="translate(116.22,-615.118)">
			<title>Sheet.6</title>
			<path d="M0 841.89 L99.21 841.89" class="st7"/>
		</g>
		<g id="shape7-27" v:mID="7" v:groupContext="shape" transform="translate(966.614,226.772) rotate(90)">
			<title>Sheet.7</title>
			<path d="M0 841.89 L11.34 841.89" class="st7"/>
		</g>
		<g id="shape8-30" v:mID="8" v:groupContext="shape" transform="translate(96.378,1087.09) rotate(180)">
			<title>Sheet.8</title>
			<path d="M0 841.89 L62.36 841.89" class="st7"/>
		</g>
		<g id="shape9-33" v:mID="9" v:groupContext="shape" transform="translate(-807.874,245.197) rotate(-90)">
			<title>Sheet.9</title>
			<path d="M0 841.89 L89.29 841.89" class="st7"/>
		</g>
		<g id="group10-36" transform="translate(319.606,-590.551)" v:mID="10" v:groupContext="group">
			<title>Sheet.10</title>
			<g id="shape11-37" v:mID="11" v:groupContext="shape" transform="translate(28.3465,1.13687E-013)">
				<title>Sheet.11</title>
				<desc>Reg</desc>
				<v:textBlock v:margins="rect(4,4,4,4)" v:tabSpace="42.5197"/>
				<v:textRect cx="9.92126" cy="825.354" width="19.85" height="33.0709"/>
				<rect x="0" y="808.819" width="19.8425" height="33.0709" class="st3"/>
				<text x="4.42" y="827.15" class="st6" v:langID="2057"><v:paragraph v:horizAlign="1"/><v:tabList/>Reg</text>			</g>
			<g id="shape12-40" v:mID="12" v:groupContext="shape" transform="translate(28.3465,-1.88976)">
				<title>Sheet.12</title>
				<path d="M0 833.39 L4.25 837.64 L0 841.89" class="st7"/>
			</g>
			<g id="shape13-43" v:mID="13" v:groupContext="shape" transform="translate(28.3465,1676.22) rotate(180)">
				<title>Sheet.13</title>
				<path d="M0 841.89 L16.3 841.89" class="st7"/>
			</g>
			<g id="shape16-46" v:mID="16" v:groupContext="shape" transform="translate(48.189,-24.5669)">
				<title>Sheet.16</title>
				<path d="M0 841.89 L15.59 841.89" class="st7"/>
			</g>
			<g id="shape18-49" v:mID="18" v:groupContext="shape" transform="translate(28.3465,1659.21) rotate(180)">
				<title>Sheet.18</title>
				<path d="M0 841.89 L26.93 841.89" class="st7"/>
			</g>
		</g>
		<g id="group14-52" transform="translate(203.386,-590.551)" v:mID="14" v:groupContext="group">
			<title>Sheet.14</title>
			<g id="shape17-53" v:mID="17" v:groupContext="shape" transform="translate(28.3465,1.13687E-013)">
				<title>Sheet.17</title>
				<desc>Reg</desc>
				<v:textBlock v:margins="rect(4,4,4,4)" v:tabSpace="42.5197"/>
				<v:textRect cx="9.92126" cy="825.354" width="19.85" height="33.0709"/>
				<rect x="0" y="808.819" width="19.8425" height="33.0709" class="st3"/>
				<text x="4.42" y="827.15" class="st6" v:langID="2057"><v:paragraph v:horizAlign="1"/><v:tabList/>Reg</text>			</g>
			<g id="shape19-56" v:mID="19" v:groupContext="shape" transform="translate(28.3465,-1.88976)">
				<title>Sheet.19</title>
				<path d="M0 833.39 L4.25 837.64 L0 841.89" class="st7"/>
			</g>
			<g id="shape20-59" v:mID="20" v:groupContext="shape" transform="translate(28.3465,1677.64) rotate(180)">
				<title>Sheet.20</title>
				<path d="M0 841.89 L7.8 841.89" class="st7"/>
			</g>
			<g id="shape21-62" v:mID="21" v:groupContext="shape" transform="translate(48.189,-24.5669)">
				<title>Sheet.21</title>
				<path d="M0 841.89 L15.59 841.89" class="st7"/>
			</g>
			<g id="shape22-65" v:mID="22" v:groupContext="shape" transform="translate(28.3465,1659.21) rotate(180)">
				<title>Sheet.22</title>
				<path d="M0 841.89 L16.3 841.89" class="st7"/>
			</g>
		</g>
		<g id="group23-68" transform="translate(101.339,-579.213)" v:mID="23" v:groupContext="group">
			<title>Sheet.23</title>
			<g id="shape24-69" v:mID="24" v:groupContext="shape" transform="translate(28.3465,1.13687E-013)">
				<title>Sheet.24</title>
				<desc>Reg</desc>
				<v:textBlock v:margins="rect(4,4,4,4)" v:tabSpace="42.5197"/>
				<v:textRect cx="9.92126" cy="825.354" width="19.85" height="33.0709"/>
				<rect x="0" y="808.819" width="19.8425" height="33.0709" class="st3"/>
				<text x="4.42" y="827.15" class="st6" v:langID="2057"><v:paragraph v:horizAlign="1"/><v:tabList/>Reg</text>			</g>
			<g id="shape25-72" v:mID="25" v:groupContext="shape" transform="translate(28.3465,-1.88976)">
				<title>Sheet.25</title>
				<path d="M0 833.39 L4.25 837.64 L0 841.89" class="st7"/>
			</g>
			<g id="shape26-75" v:mID="26" v:groupContext="shape" transform="translate(28.3465,1677.64) rotate(180)">
				<title>Sheet.26</title>
				<path d="M0 841.89 L95.67 841.89" class="st7"/>
			</g>
			<g id="shape27-78" v:mID="27" v:groupContext="shape" transform="translate(48.189,-24.5669)">
				<title>Sheet.27</title>
				<path d="M0 841.89 L6.38 841.89" class="st7"/>
			</g>
			<g id="shape28-81" v:mID="28" v:groupContext="shape" transform="translate(28.3465,1659.21) rotate(180)">
				<title>Sheet.28</title>
				<path d="M0 841.89 L4.96 841.89" class="st7"/>
			</g>
		</g>
		<g id="group29-84" transform="translate(131.811,-579.213)" v:mID="29" v:groupContext="group">
			<title>Sheet.29</title>
			<g id="shape30-85" v:mID="30" v:groupContext="shape" transform="translate(28.3465,1.13687E-013)">
				<title>Sheet.30</title>
				<desc>Reg</desc>
				<v:textBlock v:margins="rect(4,4,4,4)" v:tabSpace="42.5197"/>
				<v:textRect cx="9.92126" cy="825.354" width="19.85" height="33.0709"/>
				<rect x="0" y="808.819" width="19.8425" height="33.0709" class="st3"/>
				<text x="4.42" y="827.15" class="st6" v:langID="2057"><v:paragraph v:horizAlign="1"/><v:tabList/>Reg</text>			</g>
			<g id="shape31-88" v:mID="31" v:groupContext="shape" transform="translate(28.3465,-1.88976)">
				<title>Sheet.31</title>
				<path d="M0 833.39 L4.25 837.64 L0 841.89" class="st7"/>
			</g>
			<g id="shape32-91" v:mID="32" v:groupContext="shape" transform="translate(28.3465,1677.64) rotate(180)">
				<title>Sheet.32</title>
				<path d="M0 841.89 L4.25 841.89" class="st7"/>
			</g>
			<g id="shape33-94" v:mID="33" v:groupContext="shape" transform="translate(48.189,-24.5669)">
				<title>Sheet.33</title>
				<path d="M0 841.89 L7.09 841.89" class="st7"/>
			</g>
			<g id="shape34-97" v:mID="34" v:groupContext="shape" transform="translate(28.3465,1659.21) rotate(180)">
				<title>Sheet.34</title>
				<path d="M0 841.89 L4.96 841.89" class="st7"/>
			</g>
		</g>
		<g id="shape35-100" v:mID="35" v:groupContext="shape" transform="translate(124.724,-575.433)">
			<title>Sheet.35</title>
			<path d="M31.18 831.97 L31.18 841.89 L0 841.89 L0 831.97" class="st7"/>
		</g>
		<g id="shape15-103" v:mID="15" v:groupContext="shape" transform="translate(1028.98,238.11) rotate(90)">
			<title>Sheet.15</title>
			<path d="M0 841.89 L32.8 841.89" class="st8"/>
		</g>
		<g id="shape36-109" v:mID="36" v:groupContext="shape" transform="translate(147.402,-532.913)">
			<title>Sheet.36</title>
			<desc>IO Ctrl</desc>
			<v:textBlock v:margins="rect(4,4,4,4)" v:tabSpace="42.5197"/>
			<v:textRect cx="24.0945" cy="827.717" width="48.19" height="28.3465"/>
			<rect x="0" y="813.543" width="48.189" height="28.3465" class="st3"/>
			<text x="6.76" y="831.32" class="st2" v:langID="2057"><v:paragraph v:horizAlign="1"/><v:tabList/>IO Ctrl</text>		</g>
		<g id="group38-112" transform="translate(236.693,-579.213)" v:mID="38" v:groupContext="group">
			<title>Sheet.38</title>
			<g id="shape39-113" v:mID="39" v:groupContext="shape" transform="translate(28.3465,1.13687E-013)">
				<title>Sheet.39</title>
				<desc>Reg</desc>
				<v:textBlock v:margins="rect(4,4,4,4)" v:tabSpace="42.5197"/>
				<v:textRect cx="9.92126" cy="825.354" width="19.85" height="33.0709"/>
				<rect x="0" y="808.819" width="19.8425" height="33.0709" class="st3"/>
				<text x="4.42" y="827.15" class="st6" v:langID="2057"><v:paragraph v:horizAlign="1"/><v:tabList/>Reg</text>			</g>
			<g id="shape40-116" v:mID="40" v:groupContext="shape" transform="translate(28.3465,-1.88976)">
				<title>Sheet.40</title>
				<path d="M0 833.39 L4.25 837.64 L0 841.89" class="st7"/>
			</g>
			<g id="shape41-119" v:mID="41" v:groupContext="shape" transform="translate(28.3465,1677.64) rotate(180)">
				<title>Sheet.41</title>
				<path d="M0 841.89 L41.1 841.89" class="st7"/>
			</g>
			<g id="shape42-122" v:mID="42" v:groupContext="shape" transform="translate(48.189,-24.5669)">
				<title>Sheet.42</title>
				<path d="M0 841.89 L6.38 841.89" class="st7"/>
			</g>
			<g id="shape43-125" v:mID="43" v:groupContext="shape" transform="translate(28.3465,1659.21) rotate(180)">
				<title>Sheet.43</title>
				<path d="M0 841.89 L4.96 841.89" class="st7"/>
			</g>
		</g>
		<g id="shape44-128" v:mID="44" v:groupContext="shape" transform="translate(-581.811,238.11) rotate(-90)">
			<title>Sheet.44</title>
			<path d="M0 841.89 L11.34 841.89" class="st7"/>
		</g>
		<g id="shape45-131" v:mID="45" v:groupContext="shape" transform="translate(267.165,-615.118)">
			<title>Sheet.45</title>
			<path d="M0 841.89 L55.98 841.89" class="st7"/>
		</g>
		<g id="shape46-134" v:mID="46" v:groupContext="shape" transform="translate(1133.15,238.11) rotate(90)">
			<title>Sheet.46</title>
			<path d="M0 841.89 L32.8 841.89" class="st8"/>
		</g>
		<g id="shape47-139" v:mID="47" v:groupContext="shape" transform="translate(253.701,-532.913)">
			<title>Sheet.47</title>
			<desc>IO Ctrl</desc>
			<v:textBlock v:margins="rect(4,4,4,4)" v:tabSpace="42.5197"/>
			<v:textRect cx="24.0945" cy="827.717" width="48.19" height="28.3465"/>
			<rect x="0" y="813.543" width="48.189" height="28.3465" class="st3"/>
			<text x="6.76" y="831.32" class="st2" v:langID="2057"><v:paragraph v:horizAlign="1"/><v:tabList/>IO Ctrl</text>		</g>
		<g id="shape48-142" v:mID="48" v:groupContext="shape" transform="translate(-617.953,245.197) rotate(-90)">
			<title>Sheet.48</title>
			<path d="M0 841.89 L89.29 841.89" class="st7"/>
		</g>
		<g id="shape51-145" v:mID="51" v:groupContext="shape" transform="translate(34.0157,-685.984)">
			<title>Sheet.51</title>
			<path d="M0 841.89 L262.2 841.89" class="st7"/>
		</g>
		<g id="shape52-148" v:mID="52" v:groupContext="shape" transform="translate(-510.236,243.78) rotate(-90)">
			<title>Sheet.52</title>
			<path d="M0 841.89 L87.87 841.89" class="st7"/>
		</g>
		<g id="shape53-151" v:mID="53" v:groupContext="shape" transform="translate(348.661,-532.913)">
			<title>Sheet.53</title>
			<desc>IO Ctrl</desc>
			<v:textBlock v:margins="rect(4,4,4,4)" v:tabSpace="42.5197"/>
			<v:textRect cx="24.0945" cy="827.717" width="48.19" height="28.3465"/>
			<rect x="0" y="813.543" width="48.189" height="28.3465" class="st3"/>
			<text x="6.76" y="831.32" class="st2" v:langID="2057"><v:paragraph v:horizAlign="1"/><v:tabList/>IO Ctrl</text>		</g>
		<g id="shape54-154" v:mID="54" v:groupContext="shape" transform="translate(1225.28,226.772) rotate(90)">
			<title>Sheet.54</title>
			<path d="M0 841.89 L44.14 841.89" class="st8"/>
		</g>
		<g id="shape55-159" v:mID="55" v:groupContext="shape" transform="translate(864.567,170.079) rotate(90)">
			<title>Sheet.55</title>
			<path d="M0 841.89 L147.4 841.89" class="st7"/>
		</g>
		<g id="shape56-162" v:mID="56" v:groupContext="shape" transform="translate(22.6772,-524.409)">
			<title>Sheet.56</title>
			<path d="M0 694.49 L175.75 694.49 L175.75 841.89" class="st7"/>
		</g>
		<g id="shape57-165" v:mID="57" v:groupContext="shape" transform="translate(206.929,-524.409)">
			<title>Sheet.57</title>
			<path d="M104.88 841.89 L104.88 694.49 L0 694.49 L0 841.89" class="st7"/>
		</g>
		<g id="shape58-168" v:mID="58" v:groupContext="shape" transform="translate(320.315,-524.409)">
			<title>Sheet.58</title>
			<path d="M0 841.89 L0 694.49 L104.88 694.49 L104.88 841.89" class="st7"/>
		</g>
		<g id="shape59-171" v:mID="59" v:groupContext="shape" transform="translate(22.6772,-524.409)">
			<title>Sheet.59</title>
			<path d="M0 841.89 L175.75 841.89" class="st10"/>
		</g>
		<g id="shape60-174" v:mID="60" v:groupContext="shape" transform="translate(206.929,-524.409)">
			<title>Sheet.60</title>
			<path d="M0 841.89 L104.88 841.89" class="st10"/>
		</g>
		<g id="shape61-177" v:mID="61" v:groupContext="shape" transform="translate(320.315,-524.409)">
			<title>Sheet.61</title>
			<path d="M0 841.89 L104.88 841.89" class="st10"/>
		</g>
		<g id="shape62-180" v:mID="62" v:groupContext="shape" transform="translate(-617.953,256.535) rotate(-90)">
			<title>Sheet.62</title>
			<path d="M0 841.89 L11.34 841.89" class="st7"/>
		</g>
		<g id="shape63-183" v:mID="63" v:groupContext="shape" transform="translate(-807.874,256.535) rotate(-90)">
			<title>Sheet.63</title>
			<path d="M0 841.89 L11.34 841.89" class="st7"/>
		</g>
		<g id="shape64-186" v:mID="64" v:groupContext="shape" transform="translate(296.22,-685.984)">
			<title>Sheet.64</title>
			<path d="M0 841.89 L35.43 841.89" class="st7"/>
		</g>
		<g id="shape65-189" v:mID="65" v:groupContext="shape" transform="translate(-807.874,155.906) rotate(-90)">
			<title>Sheet.65</title>
			<path d="M0 841.89 L17.01 841.89" class="st7"/>
		</g>
		<g id="shape66-192" v:mID="66" v:groupContext="shape" transform="translate(-759.685,175.748) rotate(-90)">
			<title>Sheet.66</title>
			<path d="M0 841.89 L36.85 841.89" class="st7"/>
		</g>
		<g id="shape67-195" v:mID="67" v:groupContext="shape" transform="translate(62.3622,-702.992)">
			<title>Sheet.67</title>
			<desc>UART</desc>
			<v:textBlock v:margins="rect(4,4,4,4)" v:tabSpace="42.5197"/>
			<v:textRect cx="22.6772" cy="830.551" width="45.36" height="22.6772"/>
			<rect x="0" y="819.213" width="45.3543" height="22.6772" class="st3"/>
			<text x="6.34" y="834.15" class="st2" v:langID="2057"><v:paragraph v:horizAlign="1"/><v:tabList/>UART</text>		</g>
		<g id="shape68-198" v:mID="68" v:groupContext="shape" transform="translate(11.3386,-702.992)">
			<title>Sheet.68</title>
			<desc>Clock</desc>
			<v:textBlock v:margins="rect(4,4,4,4)" v:tabSpace="42.5197"/>
			<v:textRect cx="22.6772" cy="830.551" width="45.36" height="22.6772"/>
			<rect x="0" y="819.213" width="45.3543" height="22.6772" class="st3"/>
			<text x="7.67" y="834.15" class="st2" v:langID="2057"><v:paragraph v:horizAlign="1"/><v:tabList/>Clock</text>		</g>
	</g>
</svg>
